<?xml version="1.0" standalone="no"?>
<!DOCTYPE svg PUBLIC "-//W3C//DTD SVG 20010904//EN"
 "http://www.w3.org/TR/2001/REC-SVG-20010904/DTD/svg10.dtd">
<svg version="1.0" xmlns="http://www.w3.org/2000/svg"
 width="500.000000pt" height="500.000000pt" viewBox="0 0 500.000000 500.000000"
 preserveAspectRatio="xMidYMid meet">
<metadata>
Created by potrace 1.14, written by Peter Selinger 2001-2017
</metadata>
<g transform="translate(0.000000,500.000000) scale(0.100000,-0.100000)"
fill="#000000" stroke="none">
<path d="M2256 4042 c-4 -4 -41 -11 -96 -18 -25 -3 -48 -8 -51 -10 -3 -2 -20
-6 -38 -9 -43 -7 -175 -52 -231 -78 -25 -11 -49 -22 -55 -23 -5 -1 -39 -18
-73 -38 -35 -20 -68 -36 -73 -36 -5 0 -9 -4 -9 -9 0 -5 -9 -13 -20 -16 -11 -3
-26 -12 -32 -18 -7 -7 -40 -32 -73 -57 -59 -44 -190 -171 -233 -226 -65 -83
-123 -173 -158 -242 -21 -42 -41 -79 -44 -82 -3 -3 -12 -24 -20 -48 -10 -33
-18 -42 -31 -39 -26 7 -35 -5 -125 -173 -11 -19 -22 -36 -26 -38 -5 -2 -8 -12
-8 -23 0 -10 -4 -19 -9 -19 -5 0 -14 -12 -20 -27 -6 -16 -22 -46 -36 -68 -14
-22 -28 -48 -31 -57 -4 -10 -10 -18 -15 -18 -5 0 -9 8 -10 18 0 9 -3 26 -5 37
-3 11 -7 38 -9 60 -5 58 -15 137 -20 161 -3 12 -7 50 -11 85 -7 83 -21 127
-42 133 -15 4 -198 41 -258 52 -15 3 -24 -2 -28 -13 -4 -15 -60 -292 -72 -358
-2 -11 -15 -76 -30 -145 -14 -69 -28 -138 -30 -155 -3 -16 -11 -52 -18 -80
-18 -76 -17 -78 44 -92 50 -12 102 -22 118 -24 28 -4 59 3 59 14 0 6 3 23 6
37 32 145 59 277 60 288 1 22 17 13 18 -10 0 -13 2 -30 3 -38 2 -8 6 -40 10
-70 3 -30 9 -68 11 -85 3 -16 7 -46 9 -65 10 -86 18 -110 40 -115 153 -32 158
-31 196 28 16 26 30 49 30 52 0 14 64 104 71 99 5 -3 7 1 4 8 -3 7 6 31 19 53
l24 40 -1 -53 c0 -28 2 -54 5 -57 3 -3 2 -23 -3 -43 -4 -20 -10 -50 -13 -67
-3 -16 -9 -43 -12 -60 -12 -56 -10 -59 28 -69 31 -8 37 -14 43 -45 4 -20 11
-42 17 -48 6 -7 8 -13 5 -13 -3 0 3 -24 14 -52 11 -29 23 -62 26 -72 29 -89
174 -321 263 -420 48 -54 164 -166 171 -166 3 0 17 -10 31 -23 14 -12 37 -30
52 -41 14 -10 23 -22 21 -27 -3 -4 4 -6 15 -4 11 2 20 0 20 -4 0 -5 -22 -11
-48 -15 -47 -6 -100 -42 -87 -59 3 -4 2 -5 -1 -2 -10 7 -42 -33 -53 -69 -15
-43 -19 -116 -8 -116 5 0 7 -7 3 -15 -3 -8 -1 -15 4 -15 5 0 12 -9 15 -20 16
-52 100 -99 166 -93 67 5 69 6 69 16 0 6 3 8 6 4 3 -3 16 5 29 18 12 14 24 22
27 20 3 -3 17 17 30 45 20 40 25 63 22 103 -2 29 -8 53 -14 55 -5 2 -10 10
-10 17 0 8 -6 20 -12 27 -7 8 -24 27 -38 43 l-25 30 25 -20 c13 -11 30 -26 36
-34 6 -8 17 -16 25 -17 8 -1 49 -16 91 -33 80 -31 167 -59 215 -67 15 -3 46
-9 69 -14 125 -28 348 -30 504 -4 93 15 256 62 320 92 19 9 37 17 40 18 3 1
15 5 28 9 12 4 22 11 22 16 0 5 7 9 15 9 9 0 32 11 53 24 20 12 40 24 45 24 4
1 13 6 20 12 6 6 48 37 93 69 44 32 117 95 161 139 79 79 203 233 203 252 0 6
5 10 10 10 6 0 10 7 10 15 0 8 5 15 12 15 6 0 8 3 5 6 -4 4 2 19 12 33 9 14
25 42 33 61 46 100 66 150 62 150 -3 0 2 10 11 23 16 22 18 23 56 26 13 1 18
5 13 14 -6 9 -5 9 7 0 9 -7 28 -10 45 -7 16 3 41 7 56 8 16 1 35 11 43 22 18
22 16 66 -10 227 -7 42 -13 81 -21 142 -3 28 -8 57 -9 65 -1 8 -6 40 -10 70
-4 30 -9 64 -11 75 -2 11 -7 40 -10 65 -25 197 -30 206 -111 189 -20 -4 -31
-3 -27 3 3 5 2 17 -2 26 -4 9 -9 26 -11 37 -9 50 -98 246 -115 253 -5 2 -8 10
-8 17 0 8 -6 20 -13 27 -6 7 -21 30 -32 51 -11 20 -24 37 -28 37 -5 0 -6 10
-3 23 4 12 8 27 9 33 2 7 8 18 13 25 21 28 17 105 -10 161 -36 76 -97 113
-186 113 -42 0 -77 -6 -99 -17 -32 -17 -34 -17 -61 2 -16 11 -34 20 -41 20 -7
0 -10 3 -6 6 10 10 -240 141 -286 150 -10 2 -24 7 -31 12 -21 17 -222 65 -326
78 -61 7 -328 12 -334 6z"/>
<path d="M759 3950 c-192 -33 -228 -299 -53 -389 108 -54 223 -18 280 89 18
35 28 160 12 160 -5 0 -8 7 -8 16 0 16 -95 115 -108 112 -4 -1 -14 1 -22 5
-28 10 -65 13 -101 7z"/>
<path d="M4113 3032 c-11 -7 -27 -88 -28 -147 0 -22 5 -31 20 -33 11 -2 27 -6
35 -9 19 -8 47 -14 129 -30 43 -7 42 -4 26 -90 -3 -16 -8 -44 -11 -63 -3 -19
-8 -38 -9 -41 -2 -3 -7 -28 -10 -55 -4 -27 -11 -69 -17 -94 -5 -25 -12 -61
-14 -80 -2 -19 -7 -46 -10 -60 -8 -33 -12 -57 -18 -100 -3 -19 -7 -45 -10 -56
-4 -19 2 -23 57 -34 34 -7 69 -17 78 -21 9 -5 21 -3 27 3 9 9 12 9 12 0 0 -34
68 10 75 48 2 14 7 39 10 55 3 17 16 93 30 170 14 77 27 151 30 165 3 14 7 37
10 53 3 15 7 39 10 55 14 79 21 96 35 87 20 -12 167 -35 193 -29 17 3 29 14
32 27 33 145 33 153 -2 162 -85 21 -617 125 -640 125 -16 0 -33 -4 -40 -8z"/>
<path d="M4300 1943 c0 -5 -12 -8 -27 -7 -16 1 -46 -8 -68 -18 -144 -71 -171
-261 -52 -370 72 -65 170 -74 264 -24 26 15 43 26 38 26 -6 0 -2 5 8 11 31 18
60 90 63 157 2 40 -1 62 -8 62 -6 0 -8 3 -5 6 8 8 -21 61 -48 89 -25 25 -95
62 -115 60 -8 -1 -23 3 -32 7 -10 5 -18 5 -18 1z"/>
</g>
</svg>
